<svg width="45" height="45" viewBox="0 0 45 45" fill="none" xmlns="http://www.w3.org/2000/svg">
<path opacity="0.2" d="M22.8 1.69092C34.398 1.69092 43.8 11.0929 43.8 22.6909C43.8 34.2889 34.398 43.6909 22.8 43.6909C11.2021 43.6909 1.80005 34.2889 1.80005 22.6909C1.80005 11.0929 11.2021 1.69092 22.8 1.69092Z" fill="white" stroke="#F9FAFB" stroke-width="2"/>
<path d="M21.0391 29.4311L21.0191 23.2741H18.4V20.6353H21.0191V18.8762C21.0191 16.5021 22.4783 15.3579 24.5804 15.3579C25.5874 15.3579 26.4528 15.4334 26.705 15.4672V17.9483L25.2471 17.949C24.1038 17.949 23.8825 18.4963 23.8825 19.2995V20.6353H27.1302L26.2572 23.2741H23.8824V29.4311H21.0391Z" fill="#F9FAFB"/>
</svg>
