<svg width="45" height="45" viewBox="0 0 45 45" fill="none" xmlns="http://www.w3.org/2000/svg">
<path opacity="0.2" d="M22.8 1.69092C34.398 1.69092 43.8 11.0929 43.8 22.6909C43.8 34.2889 34.398 43.6909 22.8 43.6909C11.2021 43.6909 1.80005 34.2889 1.80005 22.6909C1.80005 11.0929 11.2021 1.69092 22.8 1.69092Z" fill="white" stroke="#F9FAFB" stroke-width="2"/>
<path d="M26.093 20.1899C26.5142 20.1899 26.8557 19.8484 26.8557 19.4272C26.8557 19.006 26.5142 18.6646 26.093 18.6646C25.6718 18.6646 25.3303 19.006 25.3303 19.4272C25.3303 19.8484 25.6718 20.1899 26.093 20.1899Z" fill="#F9FAFB"/>
<path d="M22.8 19.5132C24.5526 19.5132 25.9778 20.9384 25.9778 22.6909C25.9778 24.4435 24.5526 25.8687 22.8 25.8687C21.0475 25.8686 19.6223 24.4434 19.6223 22.6909C19.6223 20.9384 21.0475 19.5132 22.8 19.5132ZM22.8 21.1021C21.9238 21.1021 21.2112 21.8146 21.2112 22.6909C21.2114 23.567 21.9239 24.2798 22.8 24.2798C23.6762 24.2798 24.3887 23.567 24.3889 22.6909C24.3889 21.8146 23.6763 21.1021 22.8 21.1021Z" fill="#F9FAFB"/>
<path d="M25.9777 16.3354C27.611 16.3354 29.1554 17.8798 29.1554 19.5132V25.8687C29.1554 27.502 27.611 29.0464 25.9777 29.0464H19.6222C17.9888 29.0464 16.4445 27.502 16.4445 25.8687V19.5132C16.4445 17.8798 17.9888 16.3355 19.6222 16.3354H25.9777ZM19.6222 17.9243C18.8794 17.9244 18.0333 18.7704 18.0333 19.5132V25.8687C18.0333 26.6257 18.8651 27.4575 19.6222 27.4575H25.9777C26.7205 27.4575 27.5665 26.6115 27.5665 25.8687V19.5132C27.5665 18.7704 26.7205 17.9243 25.9777 17.9243H19.6222Z" fill="#F9FAFB"/>
</svg>
