<svg width="45" height="45" viewBox="0 0 45 45" fill="none" xmlns="http://www.w3.org/2000/svg">
<path opacity="0.2" d="M22.8 1.81592C34.329 1.81592 43.675 11.162 43.675 22.6909C43.675 34.2199 34.329 43.5659 22.8 43.5659C11.2711 43.5659 1.92505 34.2199 1.92505 22.6909C1.92505 11.162 11.2711 1.81592 22.8 1.81592Z" fill="white" stroke="#F9FAFB" stroke-width="2.25"/>
<path d="M18.0945 19.6354C19.0057 19.6354 19.7445 18.8967 19.7445 17.9854C19.7445 17.0742 19.0057 16.3354 18.0945 16.3354C17.1832 16.3354 16.4445 17.0742 16.4445 17.9854C16.4445 18.8967 17.1832 19.6354 18.0945 19.6354Z" fill="#F9FAFB"/>
<path d="M19.4695 20.7349H16.7195C16.5677 20.7349 16.4445 20.8581 16.4445 21.0099V29.2599C16.4445 29.4117 16.5677 29.5349 16.7195 29.5349H19.4695C19.6213 29.5349 19.7445 29.4117 19.7445 29.2599V21.0099C19.7445 20.8581 19.6213 20.7349 19.4695 20.7349Z" fill="#F9FAFB"/>
<path d="M27.6628 20.3561C26.4875 19.9535 25.0173 20.3072 24.1357 20.9413C24.1054 20.8231 23.9976 20.7351 23.8695 20.7351H21.1195C20.9677 20.7351 20.8445 20.8583 20.8445 21.0101V29.2601C20.8445 29.4119 20.9677 29.5351 21.1195 29.5351H23.8695C24.0213 29.5351 24.1445 29.4119 24.1445 29.2601V23.3311C24.5889 22.9483 25.1614 22.8262 25.63 23.0253C26.0843 23.2172 26.3445 23.6858 26.3445 24.3101V29.2601C26.3445 29.4119 26.4677 29.5351 26.6195 29.5351H29.3695C29.5213 29.5351 29.6445 29.4119 29.6445 29.2601V23.7562C29.6131 21.4963 28.55 20.6597 27.6628 20.3561Z" fill="#F9FAFB"/>
</svg>
