<?xml version="1.0" standalone="no"?>
<!DOCTYPE svg PUBLIC "-//W3C//DTD SVG 20010904//EN"
 "http://www.w3.org/TR/2001/REC-SVG-20010904/DTD/svg10.dtd">
<svg version="1.0" xmlns="http://www.w3.org/2000/svg"
 width="1024.000000pt" height="1536.000000pt" viewBox="0 0 1024.000000 1536.000000"
 preserveAspectRatio="xMidYMid meet">

<g transform="translate(0.000000,1536.000000) scale(0.100000,-0.100000)"
fill="#000000" stroke="none">
<path d="M5035 11562 c-38 -22 -176 -101 -305 -177 -129 -76 -440 -257 -690
-403 -521 -304 -1105 -645 -1830 -1072 -278 -163 -578 -338 -668 -389 -124
-71 -164 -99 -168 -117 -14 -57 -3 -67 216 -199 l210 -126 0 -694 0 -693 -24
-29 c-13 -15 -35 -46 -50 -67 l-26 -39 0 -344 c0 -378 3 -398 59 -427 23 -12
63 -16 173 -16 125 0 147 3 172 19 55 37 55 37 56 421 l0 355 -55 69 -55 69 0
608 c0 335 3 609 7 609 3 0 27 -12 52 -27 84 -48 1785 -1064 2390 -1427 435
-261 602 -356 624 -356 22 0 196 99 646 367 1468 875 2304 1372 2802 1667 146
86 276 166 288 177 23 22 28 66 9 91 -7 9 -173 111 -368 226 -195 114 -616
363 -935 552 -319 189 -606 358 -637 377 -31 18 -68 33 -83 33 -26 0 -234
-118 -960 -545 -137 -81 -450 -264 -695 -407 -472 -276 -510 -300 -510 -324 0
-17 3 -19 470 -294 201 -119 366 -210 380 -210 23 0 148 72 878 507 l293 175
139 -84 c77 -46 138 -87 136 -93 -1 -5 -160 -104 -352 -219 -873 -521 -1478
-879 -1493 -883 -10 -3 -340 188 -812 469 -436 260 -863 514 -946 563 -84 50
-153 92 -153 95 0 3 33 24 73 47 39 22 155 90 257 150 102 60 460 270 795 468
1696 997 1700 999 1703 1027 3 24 -8 33 -130 106 -443 263 -758 442 -784 447
-22 4 -46 -4 -99 -33z"/>
<path d="M2530 8171 c-7 -13 -10 -288 -10 -823 0 -760 1 -805 18 -838 15 -28
61 -62 228 -166 1520 -953 2323 -1449 2351 -1452 35 -4 3 -24 1178 708 209
131 603 375 875 545 272 169 506 317 519 329 52 47 51 26 51 884 0 781 0 799
-20 817 -12 11 -27 15 -43 11 -40 -10 -690 -404 -719 -437 l-28 -29 0 -349 c0
-318 -2 -351 -18 -368 -9 -11 -73 -54 -142 -95 -69 -42 -287 -174 -485 -295
-198 -121 -534 -326 -748 -457 -213 -130 -398 -236 -410 -236 -28 0 -2 -16
-952 569 -440 271 -810 503 -822 517 -23 25 -23 27 -23 360 0 270 -3 340 -14
362 -10 19 -89 72 -253 172 -347 211 -485 290 -505 290 -9 0 -22 -9 -28 -19z"/>
</g>
</svg>
